# xmcd CD database file
#
# Track frame offsets:
#	150
#	18791
#	36673
#	56679
#	82452
#	107046
#	127132
#	155718
#	189549
#	211714
#	234326
#	254357
#	265306
#
# Disc length: 3795 seconds
#
# Revision: 1
# Processed by: cddbd v1.4PL0 Copyright (c) Steve Scherf et al.
# Submitted via: CDex 1.51
#
DISCID=bd0ed10d
DTITLE=Various Artist - New Age and New Sounds Vol 97
DYEAR=1900
DGENRE=New Age
TTITLE0=Suzanne Ciani - Turning
TTITLE1=Nando Lauria - Shall We?
TTITLE2=Mpath - Jagad Ma
TTITLE3=Keiko Matsui - Ever After
TTITLE4=Espirito - Gypsy
TTITLE5=Kazu Matsui - Villaqe Stone
TTITLE6=Scarlet Rivera - Spiral Dance
TTITLE7=Robert Sequoia - Essence of Life (Final)
TTITLE8=De Madera - La Enredadera
TTITLE9=Warren Hill - Easy
TTITLE10=Mpath - Strange World
TTITLE11=Vidali - Destiny
TTITLE12=Trilok Gurtu - Big Brother Reprise
EXTD=
EXTT0=
EXTT1=
EXTT2=
EXTT3=
EXTT4=
EXTT5=
EXTT6=
EXTT7=
EXTT8=
EXTT9=
EXTT10=
EXTT11=
EXTT12=
PLAYORDER=
